<mxfile host="65bd71144e">
    <diagram id="-nAmI4kWOHe-rx4IXglN" name="Page-1">
        <mxGraphModel dx="1127" dy="779" grid="1" gridSize="10" guides="1" tooltips="1" connect="1" arrows="1" fold="1" page="1" pageScale="1" pageWidth="1169" pageHeight="827" math="0" shadow="0">
            <root>
                <mxCell id="0"/>
                <mxCell id="1" parent="0"/>
                <mxCell id="4" value="" style="edgeStyle=none;html=1;" edge="1" parent="1" source="2" target="3">
                    <mxGeometry relative="1" as="geometry"/>
                </mxCell>
                <mxCell id="2" value="事件1：&lt;br&gt;增加或者修改副本数量" style="rounded=1;whiteSpace=wrap;html=1;" vertex="1" parent="1">
                    <mxGeometry x="80" y="30" width="120" height="60" as="geometry"/>
                </mxCell>
                <mxCell id="3" value="容器根据用户定义策略，停止相关容器或者启动相关容器" style="whiteSpace=wrap;html=1;rounded=1;" vertex="1" parent="1">
                    <mxGeometry x="315" y="30" width="120" height="60" as="geometry"/>
                </mxCell>
                <mxCell id="7" value="" style="edgeStyle=none;html=1;entryX=0;entryY=0.5;entryDx=0;entryDy=0;" edge="1" parent="1" source="5" target="8">
                    <mxGeometry relative="1" as="geometry"/>
                </mxCell>
                <mxCell id="5" value="事件2：&lt;br&gt;容器异常终止" style="rounded=1;whiteSpace=wrap;html=1;flipH=1;" vertex="1" parent="1">
                    <mxGeometry x="80" y="180" width="120" height="60" as="geometry"/>
                </mxCell>
                <mxCell id="6" value="根据用户GPU选择策略，创建新的容器" style="whiteSpace=wrap;html=1;rounded=1;flipH=1;" vertex="1" parent="1">
                    <mxGeometry x="550" y="180" width="120" height="60" as="geometry"/>
                </mxCell>
                <mxCell id="8" value="用户配置是否绑定资源" style="rhombus;whiteSpace=wrap;html=1;flipH=1;" vertex="1" parent="1">
                    <mxGeometry x="335" y="170" width="80" height="80" as="geometry"/>
                </mxCell>
                <mxCell id="9" value="否" style="endArrow=classic;html=1;entryX=0;entryY=0.5;entryDx=0;entryDy=0;exitX=1;exitY=0.5;exitDx=0;exitDy=0;" edge="1" parent="1" source="8" target="6">
                    <mxGeometry width="50" height="50" relative="1" as="geometry">
                        <mxPoint x="360" y="370" as="sourcePoint"/>
                        <mxPoint x="410" y="320" as="targetPoint"/>
                    </mxGeometry>
                </mxCell>
                <mxCell id="10" value="是" style="endArrow=classic;html=1;exitX=0.5;exitY=1;exitDx=0;exitDy=0;entryX=0.5;entryY=0;entryDx=0;entryDy=0;" edge="1" parent="1" source="8" target="11">
                    <mxGeometry width="50" height="50" relative="1" as="geometry">
                        <mxPoint x="550" y="250" as="sourcePoint"/>
                        <mxPoint x="330" y="300" as="targetPoint"/>
                    </mxGeometry>
                </mxCell>
                <mxCell id="11" value="根据自定义资源中配置的原有GPU资源启动容器" style="rounded=1;whiteSpace=wrap;html=1;" vertex="1" parent="1">
                    <mxGeometry x="315" y="302" width="120" height="60" as="geometry"/>
                </mxCell>
                <mxCell id="15" value="" style="edgeStyle=none;html=1;" edge="1" parent="1" source="13" target="14">
                    <mxGeometry relative="1" as="geometry"/>
                </mxCell>
                <mxCell id="13" value="事件3：&lt;br&gt;修改镜像相关配置" style="rounded=1;whiteSpace=wrap;html=1;" vertex="1" parent="1">
                    <mxGeometry x="80" y="424" width="120" height="60" as="geometry"/>
                </mxCell>
                <mxCell id="14" value="删除已有容器" style="whiteSpace=wrap;html=1;rounded=1;" vertex="1" parent="1">
                    <mxGeometry x="315" y="424" width="120" height="60" as="geometry"/>
                </mxCell>
                <mxCell id="16" value="用户配置是否绑定资源" style="rhombus;whiteSpace=wrap;html=1;" vertex="1" parent="1">
                    <mxGeometry x="570" y="414" width="80" height="80" as="geometry"/>
                </mxCell>
                <mxCell id="17" value="" style="endArrow=classic;html=1;exitX=1;exitY=0.5;exitDx=0;exitDy=0;entryX=0;entryY=0.5;entryDx=0;entryDy=0;" edge="1" parent="1" source="14" target="16">
                    <mxGeometry width="50" height="50" relative="1" as="geometry">
                        <mxPoint x="550" y="324" as="sourcePoint"/>
                        <mxPoint x="600" y="274" as="targetPoint"/>
                    </mxGeometry>
                </mxCell>
                <mxCell id="18" value="根据用户GPU选择策略，创建新的容器" style="whiteSpace=wrap;html=1;rounded=1;" vertex="1" parent="1">
                    <mxGeometry x="785" y="424" width="120" height="60" as="geometry"/>
                </mxCell>
                <mxCell id="19" value="否" style="endArrow=classic;html=1;entryX=0;entryY=0.5;entryDx=0;entryDy=0;exitX=1;exitY=0.5;exitDx=0;exitDy=0;" edge="1" parent="1" target="18" source="16">
                    <mxGeometry width="50" height="50" relative="1" as="geometry">
                        <mxPoint x="630" y="454" as="sourcePoint"/>
                        <mxPoint x="670" y="564" as="targetPoint"/>
                    </mxGeometry>
                </mxCell>
                <mxCell id="20" value="是" style="endArrow=classic;html=1;exitX=0.5;exitY=1;exitDx=0;exitDy=0;entryX=0.5;entryY=0;entryDx=0;entryDy=0;" edge="1" parent="1" target="21" source="16">
                    <mxGeometry width="50" height="50" relative="1" as="geometry">
                        <mxPoint x="580" y="524" as="sourcePoint"/>
                        <mxPoint x="580" y="574" as="targetPoint"/>
                    </mxGeometry>
                </mxCell>
                <mxCell id="21" value="根据自定义资源中配置的原有GPU资源启动容器" style="rounded=1;whiteSpace=wrap;html=1;" vertex="1" parent="1">
                    <mxGeometry x="550" y="542" width="120" height="60" as="geometry"/>
                </mxCell>
                <mxCell id="24" value="" style="edgeStyle=none;html=1;" edge="1" parent="1" source="22" target="23">
                    <mxGeometry relative="1" as="geometry"/>
                </mxCell>
                <mxCell id="22" value="事件4：&lt;br&gt;修改容器生成策略" style="rounded=1;whiteSpace=wrap;html=1;" vertex="1" parent="1">
                    <mxGeometry x="80" y="660" width="120" height="60" as="geometry"/>
                </mxCell>
                <mxCell id="23" value="记录相关配置，等待生成容器时生效" style="whiteSpace=wrap;html=1;rounded=1;" vertex="1" parent="1">
                    <mxGeometry x="315" y="660" width="120" height="60" as="geometry"/>
                </mxCell>
            </root>
        </mxGraphModel>
    </diagram>
</mxfile>